%TF.GenerationSoftware,KiCad,Pcbnew,8.0.2*%
%TF.CreationDate,2026-02-07T14:26:08+01:00*%
%TF.ProjectId,konstantynopolitanczykowianeczka_zamieszkujaca_konstantynopol,6b6f6e73-7461-46e7-9479-6e6f706f6c69,1*%
%TF.SameCoordinates,Original*%
%TF.FileFunction,Legend,Bot*%
%TF.FilePolarity,Positive*%
%FSLAX46Y46*%
G04 Gerber Fmt 4.6, Leading zero omitted, Abs format (unit mm)*
G04 Created by KiCad (PCBNEW 8.0.2) date 2026-02-07 14:26:08*
%MOMM*%
%LPD*%
G01*
G04 APERTURE LIST*
%ADD10C,0.150000*%
%ADD11C,0.120000*%
G04 APERTURE END LIST*
D10*
X113970206Y-58310057D02*
X114065444Y-58262438D01*
X114065444Y-58262438D02*
X114160682Y-58167200D01*
X114160682Y-58167200D02*
X114303539Y-58024342D01*
X114303539Y-58024342D02*
X114398777Y-57976723D01*
X114398777Y-57976723D02*
X114494015Y-57976723D01*
X114446396Y-58214819D02*
X114541634Y-58167200D01*
X114541634Y-58167200D02*
X114636872Y-58071961D01*
X114636872Y-58071961D02*
X114684491Y-57881485D01*
X114684491Y-57881485D02*
X114684491Y-57548152D01*
X114684491Y-57548152D02*
X114636872Y-57357676D01*
X114636872Y-57357676D02*
X114541634Y-57262438D01*
X114541634Y-57262438D02*
X114446396Y-57214819D01*
X114446396Y-57214819D02*
X114255920Y-57214819D01*
X114255920Y-57214819D02*
X114160682Y-57262438D01*
X114160682Y-57262438D02*
X114065444Y-57357676D01*
X114065444Y-57357676D02*
X114017825Y-57548152D01*
X114017825Y-57548152D02*
X114017825Y-57881485D01*
X114017825Y-57881485D02*
X114065444Y-58071961D01*
X114065444Y-58071961D02*
X114160682Y-58167200D01*
X114160682Y-58167200D02*
X114255920Y-58214819D01*
X114255920Y-58214819D02*
X114446396Y-58214819D01*
X113065444Y-58214819D02*
X113636872Y-58214819D01*
X113351158Y-58214819D02*
X113351158Y-57214819D01*
X113351158Y-57214819D02*
X113446396Y-57357676D01*
X113446396Y-57357676D02*
X113541634Y-57452914D01*
X113541634Y-57452914D02*
X113636872Y-57500533D01*
X100454285Y-90859580D02*
X100501904Y-90907200D01*
X100501904Y-90907200D02*
X100644761Y-90954819D01*
X100644761Y-90954819D02*
X100739999Y-90954819D01*
X100739999Y-90954819D02*
X100882856Y-90907200D01*
X100882856Y-90907200D02*
X100978094Y-90811961D01*
X100978094Y-90811961D02*
X101025713Y-90716723D01*
X101025713Y-90716723D02*
X101073332Y-90526247D01*
X101073332Y-90526247D02*
X101073332Y-90383390D01*
X101073332Y-90383390D02*
X101025713Y-90192914D01*
X101025713Y-90192914D02*
X100978094Y-90097676D01*
X100978094Y-90097676D02*
X100882856Y-90002438D01*
X100882856Y-90002438D02*
X100739999Y-89954819D01*
X100739999Y-89954819D02*
X100644761Y-89954819D01*
X100644761Y-89954819D02*
X100501904Y-90002438D01*
X100501904Y-90002438D02*
X100454285Y-90050057D01*
X100120951Y-89954819D02*
X99501904Y-89954819D01*
X99501904Y-89954819D02*
X99835237Y-90335771D01*
X99835237Y-90335771D02*
X99692380Y-90335771D01*
X99692380Y-90335771D02*
X99597142Y-90383390D01*
X99597142Y-90383390D02*
X99549523Y-90431009D01*
X99549523Y-90431009D02*
X99501904Y-90526247D01*
X99501904Y-90526247D02*
X99501904Y-90764342D01*
X99501904Y-90764342D02*
X99549523Y-90859580D01*
X99549523Y-90859580D02*
X99597142Y-90907200D01*
X99597142Y-90907200D02*
X99692380Y-90954819D01*
X99692380Y-90954819D02*
X99978094Y-90954819D01*
X99978094Y-90954819D02*
X100073332Y-90907200D01*
X100073332Y-90907200D02*
X100120951Y-90859580D01*
X122801634Y-46109580D02*
X122849253Y-46157200D01*
X122849253Y-46157200D02*
X122992110Y-46204819D01*
X122992110Y-46204819D02*
X123087348Y-46204819D01*
X123087348Y-46204819D02*
X123230205Y-46157200D01*
X123230205Y-46157200D02*
X123325443Y-46061961D01*
X123325443Y-46061961D02*
X123373062Y-45966723D01*
X123373062Y-45966723D02*
X123420681Y-45776247D01*
X123420681Y-45776247D02*
X123420681Y-45633390D01*
X123420681Y-45633390D02*
X123373062Y-45442914D01*
X123373062Y-45442914D02*
X123325443Y-45347676D01*
X123325443Y-45347676D02*
X123230205Y-45252438D01*
X123230205Y-45252438D02*
X123087348Y-45204819D01*
X123087348Y-45204819D02*
X122992110Y-45204819D01*
X122992110Y-45204819D02*
X122849253Y-45252438D01*
X122849253Y-45252438D02*
X122801634Y-45300057D01*
X122420681Y-45300057D02*
X122373062Y-45252438D01*
X122373062Y-45252438D02*
X122277824Y-45204819D01*
X122277824Y-45204819D02*
X122039729Y-45204819D01*
X122039729Y-45204819D02*
X121944491Y-45252438D01*
X121944491Y-45252438D02*
X121896872Y-45300057D01*
X121896872Y-45300057D02*
X121849253Y-45395295D01*
X121849253Y-45395295D02*
X121849253Y-45490533D01*
X121849253Y-45490533D02*
X121896872Y-45633390D01*
X121896872Y-45633390D02*
X122468300Y-46204819D01*
X122468300Y-46204819D02*
X121849253Y-46204819D01*
X77454285Y-45859580D02*
X77501904Y-45907200D01*
X77501904Y-45907200D02*
X77644761Y-45954819D01*
X77644761Y-45954819D02*
X77739999Y-45954819D01*
X77739999Y-45954819D02*
X77882856Y-45907200D01*
X77882856Y-45907200D02*
X77978094Y-45811961D01*
X77978094Y-45811961D02*
X78025713Y-45716723D01*
X78025713Y-45716723D02*
X78073332Y-45526247D01*
X78073332Y-45526247D02*
X78073332Y-45383390D01*
X78073332Y-45383390D02*
X78025713Y-45192914D01*
X78025713Y-45192914D02*
X77978094Y-45097676D01*
X77978094Y-45097676D02*
X77882856Y-45002438D01*
X77882856Y-45002438D02*
X77739999Y-44954819D01*
X77739999Y-44954819D02*
X77644761Y-44954819D01*
X77644761Y-44954819D02*
X77501904Y-45002438D01*
X77501904Y-45002438D02*
X77454285Y-45050057D01*
X76501904Y-45954819D02*
X77073332Y-45954819D01*
X76787618Y-45954819D02*
X76787618Y-44954819D01*
X76787618Y-44954819D02*
X76882856Y-45097676D01*
X76882856Y-45097676D02*
X76978094Y-45192914D01*
X76978094Y-45192914D02*
X77073332Y-45240533D01*
D11*
%TO.C,Q1*%
X115784968Y-52500000D02*
X111934968Y-52500000D01*
X115823579Y-52509878D02*
G75*
G02*
X111934968Y-52500000I-1948611J-1690122D01*
G01*
%TO.C,C3*%
X103897317Y-93435000D02*
X104697317Y-93435000D01*
X104297317Y-93835000D02*
X104297317Y-93035000D01*
X100287619Y-99830000D02*
X100287619Y-91670000D01*
X100247619Y-99830000D02*
X100247619Y-91670000D01*
X100207619Y-99830000D02*
X100207619Y-91670000D01*
X100167619Y-99829000D02*
X100167619Y-91671000D01*
X100127619Y-99827000D02*
X100127619Y-91673000D01*
X100087619Y-99826000D02*
X100087619Y-91674000D01*
X100047619Y-99824000D02*
X100047619Y-91676000D01*
X100007619Y-99821000D02*
X100007619Y-91679000D01*
X99967619Y-99818000D02*
X99967619Y-91682000D01*
X99927619Y-99815000D02*
X99927619Y-91685000D01*
X99887619Y-99811000D02*
X99887619Y-91689000D01*
X99847619Y-99807000D02*
X99847619Y-91693000D01*
X99807619Y-99802000D02*
X99807619Y-91698000D01*
X99767619Y-99798000D02*
X99767619Y-91702000D01*
X99727619Y-99792000D02*
X99727619Y-91708000D01*
X99687619Y-99787000D02*
X99687619Y-91713000D01*
X99647619Y-99780000D02*
X99647619Y-91720000D01*
X99607619Y-99774000D02*
X99607619Y-91726000D01*
X99566619Y-94710000D02*
X99566619Y-91733000D01*
X99566619Y-99767000D02*
X99566619Y-96790000D01*
X99526619Y-94710000D02*
X99526619Y-91740000D01*
X99526619Y-99760000D02*
X99526619Y-96790000D01*
X99486619Y-94710000D02*
X99486619Y-91748000D01*
X99486619Y-99752000D02*
X99486619Y-96790000D01*
X99446619Y-94710000D02*
X99446619Y-91756000D01*
X99446619Y-99744000D02*
X99446619Y-96790000D01*
X99406619Y-94710000D02*
X99406619Y-91765000D01*
X99406619Y-99735000D02*
X99406619Y-96790000D01*
X99366619Y-94710000D02*
X99366619Y-91774000D01*
X99366619Y-99726000D02*
X99366619Y-96790000D01*
X99326619Y-94710000D02*
X99326619Y-91783000D01*
X99326619Y-99717000D02*
X99326619Y-96790000D01*
X99286619Y-94710000D02*
X99286619Y-91793000D01*
X99286619Y-99707000D02*
X99286619Y-96790000D01*
X99246619Y-94710000D02*
X99246619Y-91803000D01*
X99246619Y-99697000D02*
X99246619Y-96790000D01*
X99206619Y-94710000D02*
X99206619Y-91814000D01*
X99206619Y-99686000D02*
X99206619Y-96790000D01*
X99166619Y-94710000D02*
X99166619Y-91825000D01*
X99166619Y-99675000D02*
X99166619Y-96790000D01*
X99126619Y-94710000D02*
X99126619Y-91836000D01*
X99126619Y-99664000D02*
X99126619Y-96790000D01*
X99086619Y-94710000D02*
X99086619Y-91848000D01*
X99086619Y-99652000D02*
X99086619Y-96790000D01*
X99046619Y-94710000D02*
X99046619Y-91861000D01*
X99046619Y-99639000D02*
X99046619Y-96790000D01*
X99006619Y-94710000D02*
X99006619Y-91873000D01*
X99006619Y-99627000D02*
X99006619Y-96790000D01*
X98966619Y-94710000D02*
X98966619Y-91887000D01*
X98966619Y-99613000D02*
X98966619Y-96790000D01*
X98926619Y-94710000D02*
X98926619Y-91900000D01*
X98926619Y-99600000D02*
X98926619Y-96790000D01*
X98886619Y-94710000D02*
X98886619Y-91915000D01*
X98886619Y-99585000D02*
X98886619Y-96790000D01*
X98846619Y-94710000D02*
X98846619Y-91929000D01*
X98846619Y-99571000D02*
X98846619Y-96790000D01*
X98806619Y-94710000D02*
X98806619Y-91945000D01*
X98806619Y-99555000D02*
X98806619Y-96790000D01*
X98766619Y-94710000D02*
X98766619Y-91960000D01*
X98766619Y-99540000D02*
X98766619Y-96790000D01*
X98726619Y-94710000D02*
X98726619Y-91976000D01*
X98726619Y-99524000D02*
X98726619Y-96790000D01*
X98686619Y-94710000D02*
X98686619Y-91993000D01*
X98686619Y-99507000D02*
X98686619Y-96790000D01*
X98646619Y-94710000D02*
X98646619Y-92010000D01*
X98646619Y-99490000D02*
X98646619Y-96790000D01*
X98606619Y-94710000D02*
X98606619Y-92028000D01*
X98606619Y-99472000D02*
X98606619Y-96790000D01*
X98566619Y-94710000D02*
X98566619Y-92046000D01*
X98566619Y-99454000D02*
X98566619Y-96790000D01*
X98526619Y-94710000D02*
X98526619Y-92064000D01*
X98526619Y-99436000D02*
X98526619Y-96790000D01*
X98486619Y-94710000D02*
X98486619Y-92084000D01*
X98486619Y-99416000D02*
X98486619Y-96790000D01*
X98446619Y-94710000D02*
X98446619Y-92103000D01*
X98446619Y-99397000D02*
X98446619Y-96790000D01*
X98406619Y-94710000D02*
X98406619Y-92123000D01*
X98406619Y-99377000D02*
X98406619Y-96790000D01*
X98366619Y-94710000D02*
X98366619Y-92144000D01*
X98366619Y-99356000D02*
X98366619Y-96790000D01*
X98326619Y-94710000D02*
X98326619Y-92166000D01*
X98326619Y-99334000D02*
X98326619Y-96790000D01*
X98286619Y-94710000D02*
X98286619Y-92188000D01*
X98286619Y-99312000D02*
X98286619Y-96790000D01*
X98246619Y-94710000D02*
X98246619Y-92210000D01*
X98246619Y-99290000D02*
X98246619Y-96790000D01*
X98206619Y-94710000D02*
X98206619Y-92233000D01*
X98206619Y-99267000D02*
X98206619Y-96790000D01*
X98166619Y-94710000D02*
X98166619Y-92257000D01*
X98166619Y-99243000D02*
X98166619Y-96790000D01*
X98126619Y-94710000D02*
X98126619Y-92281000D01*
X98126619Y-99219000D02*
X98126619Y-96790000D01*
X98086619Y-94710000D02*
X98086619Y-92306000D01*
X98086619Y-99194000D02*
X98086619Y-96790000D01*
X98046619Y-94710000D02*
X98046619Y-92332000D01*
X98046619Y-99168000D02*
X98046619Y-96790000D01*
X98006619Y-94710000D02*
X98006619Y-92358000D01*
X98006619Y-99142000D02*
X98006619Y-96790000D01*
X97966619Y-94710000D02*
X97966619Y-92385000D01*
X97966619Y-99115000D02*
X97966619Y-96790000D01*
X97926619Y-94710000D02*
X97926619Y-92412000D01*
X97926619Y-99088000D02*
X97926619Y-96790000D01*
X97886619Y-94710000D02*
X97886619Y-92441000D01*
X97886619Y-99059000D02*
X97886619Y-96790000D01*
X97846619Y-94710000D02*
X97846619Y-92470000D01*
X97846619Y-99030000D02*
X97846619Y-96790000D01*
X97806619Y-94710000D02*
X97806619Y-92500000D01*
X97806619Y-99000000D02*
X97806619Y-96790000D01*
X97766619Y-94710000D02*
X97766619Y-92530000D01*
X97766619Y-98970000D02*
X97766619Y-96790000D01*
X97726619Y-94710000D02*
X97726619Y-92561000D01*
X97726619Y-98939000D02*
X97726619Y-96790000D01*
X97686619Y-94710000D02*
X97686619Y-92594000D01*
X97686619Y-98906000D02*
X97686619Y-96790000D01*
X97646619Y-94710000D02*
X97646619Y-92626000D01*
X97646619Y-98874000D02*
X97646619Y-96790000D01*
X97606619Y-94710000D02*
X97606619Y-92660000D01*
X97606619Y-98840000D02*
X97606619Y-96790000D01*
X97566619Y-94710000D02*
X97566619Y-92695000D01*
X97566619Y-98805000D02*
X97566619Y-96790000D01*
X97526619Y-94710000D02*
X97526619Y-92731000D01*
X97526619Y-98769000D02*
X97526619Y-96790000D01*
X97486619Y-98733000D02*
X97486619Y-92767000D01*
X97446619Y-98695000D02*
X97446619Y-92805000D01*
X97406619Y-98657000D02*
X97406619Y-92843000D01*
X97366619Y-98617000D02*
X97366619Y-92883000D01*
X97326619Y-98576000D02*
X97326619Y-92924000D01*
X97286619Y-98534000D02*
X97286619Y-92966000D01*
X97246619Y-98491000D02*
X97246619Y-93009000D01*
X97206619Y-98447000D02*
X97206619Y-93053000D01*
X97166619Y-98401000D02*
X97166619Y-93099000D01*
X97126619Y-98354000D02*
X97126619Y-93146000D01*
X97086619Y-98306000D02*
X97086619Y-93194000D01*
X97046619Y-98255000D02*
X97046619Y-93245000D01*
X97006619Y-98204000D02*
X97006619Y-93296000D01*
X96966619Y-98150000D02*
X96966619Y-93350000D01*
X96926619Y-98095000D02*
X96926619Y-93405000D01*
X96886619Y-98037000D02*
X96886619Y-93463000D01*
X96846619Y-97978000D02*
X96846619Y-93522000D01*
X96806619Y-97916000D02*
X96806619Y-93584000D01*
X96766619Y-97852000D02*
X96766619Y-93648000D01*
X96726619Y-97784000D02*
X96726619Y-93716000D01*
X96686619Y-97714000D02*
X96686619Y-93786000D01*
X96646619Y-97640000D02*
X96646619Y-93860000D01*
X96606619Y-97563000D02*
X96606619Y-93937000D01*
X96566619Y-97481000D02*
X96566619Y-94019000D01*
X96526619Y-97395000D02*
X96526619Y-94105000D01*
X96486619Y-97302000D02*
X96486619Y-94198000D01*
X96446619Y-97203000D02*
X96446619Y-94297000D01*
X96406619Y-97096000D02*
X96406619Y-94404000D01*
X96366619Y-96979000D02*
X96366619Y-94521000D01*
X96326619Y-96848000D02*
X96326619Y-94652000D01*
X96286619Y-96698000D02*
X96286619Y-94802000D01*
X96246619Y-96518000D02*
X96246619Y-94982000D01*
X96206619Y-96283000D02*
X96206619Y-95217000D01*
X104407619Y-95750000D02*
G75*
G02*
X96167619Y-95750000I-4120000J0D01*
G01*
X96167619Y-95750000D02*
G75*
G02*
X104407619Y-95750000I4120000J0D01*
G01*
%TO.C,C2*%
X126244666Y-48685000D02*
X127044666Y-48685000D01*
X126644666Y-49085000D02*
X126644666Y-48285000D01*
X122634968Y-55080000D02*
X122634968Y-46920000D01*
X122594968Y-55080000D02*
X122594968Y-46920000D01*
X122554968Y-55080000D02*
X122554968Y-46920000D01*
X122514968Y-55079000D02*
X122514968Y-46921000D01*
X122474968Y-55077000D02*
X122474968Y-46923000D01*
X122434968Y-55076000D02*
X122434968Y-46924000D01*
X122394968Y-55074000D02*
X122394968Y-46926000D01*
X122354968Y-55071000D02*
X122354968Y-46929000D01*
X122314968Y-55068000D02*
X122314968Y-46932000D01*
X122274968Y-55065000D02*
X122274968Y-46935000D01*
X122234968Y-55061000D02*
X122234968Y-46939000D01*
X122194968Y-55057000D02*
X122194968Y-46943000D01*
X122154968Y-55052000D02*
X122154968Y-46948000D01*
X122114968Y-55048000D02*
X122114968Y-46952000D01*
X122074968Y-55042000D02*
X122074968Y-46958000D01*
X122034968Y-55037000D02*
X122034968Y-46963000D01*
X121994968Y-55030000D02*
X121994968Y-46970000D01*
X121954968Y-55024000D02*
X121954968Y-46976000D01*
X121913968Y-49960000D02*
X121913968Y-46983000D01*
X121913968Y-55017000D02*
X121913968Y-52040000D01*
X121873968Y-49960000D02*
X121873968Y-46990000D01*
X121873968Y-55010000D02*
X121873968Y-52040000D01*
X121833968Y-49960000D02*
X121833968Y-46998000D01*
X121833968Y-55002000D02*
X121833968Y-52040000D01*
X121793968Y-49960000D02*
X121793968Y-47006000D01*
X121793968Y-54994000D02*
X121793968Y-52040000D01*
X121753968Y-49960000D02*
X121753968Y-47015000D01*
X121753968Y-54985000D02*
X121753968Y-52040000D01*
X121713968Y-49960000D02*
X121713968Y-47024000D01*
X121713968Y-54976000D02*
X121713968Y-52040000D01*
X121673968Y-49960000D02*
X121673968Y-47033000D01*
X121673968Y-54967000D02*
X121673968Y-52040000D01*
X121633968Y-49960000D02*
X121633968Y-47043000D01*
X121633968Y-54957000D02*
X121633968Y-52040000D01*
X121593968Y-49960000D02*
X121593968Y-47053000D01*
X121593968Y-54947000D02*
X121593968Y-52040000D01*
X121553968Y-49960000D02*
X121553968Y-47064000D01*
X121553968Y-54936000D02*
X121553968Y-52040000D01*
X121513968Y-49960000D02*
X121513968Y-47075000D01*
X121513968Y-54925000D02*
X121513968Y-52040000D01*
X121473968Y-49960000D02*
X121473968Y-47086000D01*
X121473968Y-54914000D02*
X121473968Y-52040000D01*
X121433968Y-49960000D02*
X121433968Y-47098000D01*
X121433968Y-54902000D02*
X121433968Y-52040000D01*
X121393968Y-49960000D02*
X121393968Y-47111000D01*
X121393968Y-54889000D02*
X121393968Y-52040000D01*
X121353968Y-49960000D02*
X121353968Y-47123000D01*
X121353968Y-54877000D02*
X121353968Y-52040000D01*
X121313968Y-49960000D02*
X121313968Y-47137000D01*
X121313968Y-54863000D02*
X121313968Y-52040000D01*
X121273968Y-49960000D02*
X121273968Y-47150000D01*
X121273968Y-54850000D02*
X121273968Y-52040000D01*
X121233968Y-49960000D02*
X121233968Y-47165000D01*
X121233968Y-54835000D02*
X121233968Y-52040000D01*
X121193968Y-49960000D02*
X121193968Y-47179000D01*
X121193968Y-54821000D02*
X121193968Y-52040000D01*
X121153968Y-49960000D02*
X121153968Y-47195000D01*
X121153968Y-54805000D02*
X121153968Y-52040000D01*
X121113968Y-49960000D02*
X121113968Y-47210000D01*
X121113968Y-54790000D02*
X121113968Y-52040000D01*
X121073968Y-49960000D02*
X121073968Y-47226000D01*
X121073968Y-54774000D02*
X121073968Y-52040000D01*
X121033968Y-49960000D02*
X121033968Y-47243000D01*
X121033968Y-54757000D02*
X121033968Y-52040000D01*
X120993968Y-49960000D02*
X120993968Y-47260000D01*
X120993968Y-54740000D02*
X120993968Y-52040000D01*
X120953968Y-49960000D02*
X120953968Y-47278000D01*
X120953968Y-54722000D02*
X120953968Y-52040000D01*
X120913968Y-49960000D02*
X120913968Y-47296000D01*
X120913968Y-54704000D02*
X120913968Y-52040000D01*
X120873968Y-49960000D02*
X120873968Y-47314000D01*
X120873968Y-54686000D02*
X120873968Y-52040000D01*
X120833968Y-49960000D02*
X120833968Y-47334000D01*
X120833968Y-54666000D02*
X120833968Y-52040000D01*
X120793968Y-49960000D02*
X120793968Y-47353000D01*
X120793968Y-54647000D02*
X120793968Y-52040000D01*
X120753968Y-49960000D02*
X120753968Y-47373000D01*
X120753968Y-54627000D02*
X120753968Y-52040000D01*
X120713968Y-49960000D02*
X120713968Y-47394000D01*
X120713968Y-54606000D02*
X120713968Y-52040000D01*
X120673968Y-49960000D02*
X120673968Y-47416000D01*
X120673968Y-54584000D02*
X120673968Y-52040000D01*
X120633968Y-49960000D02*
X120633968Y-47438000D01*
X120633968Y-54562000D02*
X120633968Y-52040000D01*
X120593968Y-49960000D02*
X120593968Y-47460000D01*
X120593968Y-54540000D02*
X120593968Y-52040000D01*
X120553968Y-49960000D02*
X120553968Y-47483000D01*
X120553968Y-54517000D02*
X120553968Y-52040000D01*
X120513968Y-49960000D02*
X120513968Y-47507000D01*
X120513968Y-54493000D02*
X120513968Y-52040000D01*
X120473968Y-49960000D02*
X120473968Y-47531000D01*
X120473968Y-54469000D02*
X120473968Y-52040000D01*
X120433968Y-49960000D02*
X120433968Y-47556000D01*
X120433968Y-54444000D02*
X120433968Y-52040000D01*
X120393968Y-49960000D02*
X120393968Y-47582000D01*
X120393968Y-54418000D02*
X120393968Y-52040000D01*
X120353968Y-49960000D02*
X120353968Y-47608000D01*
X120353968Y-54392000D02*
X120353968Y-52040000D01*
X120313968Y-49960000D02*
X120313968Y-47635000D01*
X120313968Y-54365000D02*
X120313968Y-52040000D01*
X120273968Y-49960000D02*
X120273968Y-47662000D01*
X120273968Y-54338000D02*
X120273968Y-52040000D01*
X120233968Y-49960000D02*
X120233968Y-47691000D01*
X120233968Y-54309000D02*
X120233968Y-52040000D01*
X120193968Y-49960000D02*
X120193968Y-47720000D01*
X120193968Y-54280000D02*
X120193968Y-52040000D01*
X120153968Y-49960000D02*
X120153968Y-47750000D01*
X120153968Y-54250000D02*
X120153968Y-52040000D01*
X120113968Y-49960000D02*
X120113968Y-47780000D01*
X120113968Y-54220000D02*
X120113968Y-52040000D01*
X120073968Y-49960000D02*
X120073968Y-47811000D01*
X120073968Y-54189000D02*
X120073968Y-52040000D01*
X120033968Y-49960000D02*
X120033968Y-47844000D01*
X120033968Y-54156000D02*
X120033968Y-52040000D01*
X119993968Y-49960000D02*
X119993968Y-47876000D01*
X119993968Y-54124000D02*
X119993968Y-52040000D01*
X119953968Y-49960000D02*
X119953968Y-47910000D01*
X119953968Y-54090000D02*
X119953968Y-52040000D01*
X119913968Y-49960000D02*
X119913968Y-47945000D01*
X119913968Y-54055000D02*
X119913968Y-52040000D01*
X119873968Y-49960000D02*
X119873968Y-47981000D01*
X119873968Y-54019000D02*
X119873968Y-52040000D01*
X119833968Y-53983000D02*
X119833968Y-48017000D01*
X119793968Y-53945000D02*
X119793968Y-48055000D01*
X119753968Y-53907000D02*
X119753968Y-48093000D01*
X119713968Y-53867000D02*
X119713968Y-48133000D01*
X119673968Y-53826000D02*
X119673968Y-48174000D01*
X119633968Y-53784000D02*
X119633968Y-48216000D01*
X119593968Y-53741000D02*
X119593968Y-48259000D01*
X119553968Y-53697000D02*
X119553968Y-48303000D01*
X119513968Y-53651000D02*
X119513968Y-48349000D01*
X119473968Y-53604000D02*
X119473968Y-48396000D01*
X119433968Y-53556000D02*
X119433968Y-48444000D01*
X119393968Y-53505000D02*
X119393968Y-48495000D01*
X119353968Y-53454000D02*
X119353968Y-48546000D01*
X119313968Y-53400000D02*
X119313968Y-48600000D01*
X119273968Y-53345000D02*
X119273968Y-48655000D01*
X119233968Y-53287000D02*
X119233968Y-48713000D01*
X119193968Y-53228000D02*
X119193968Y-48772000D01*
X119153968Y-53166000D02*
X119153968Y-48834000D01*
X119113968Y-53102000D02*
X119113968Y-48898000D01*
X119073968Y-53034000D02*
X119073968Y-48966000D01*
X119033968Y-52964000D02*
X119033968Y-49036000D01*
X118993968Y-52890000D02*
X118993968Y-49110000D01*
X118953968Y-52813000D02*
X118953968Y-49187000D01*
X118913968Y-52731000D02*
X118913968Y-49269000D01*
X118873968Y-52645000D02*
X118873968Y-49355000D01*
X118833968Y-52552000D02*
X118833968Y-49448000D01*
X118793968Y-52453000D02*
X118793968Y-49547000D01*
X118753968Y-52346000D02*
X118753968Y-49654000D01*
X118713968Y-52229000D02*
X118713968Y-49771000D01*
X118673968Y-52098000D02*
X118673968Y-49902000D01*
X118633968Y-51948000D02*
X118633968Y-50052000D01*
X118593968Y-51768000D02*
X118593968Y-50232000D01*
X118553968Y-51533000D02*
X118553968Y-50467000D01*
X126754968Y-51000000D02*
G75*
G02*
X118514968Y-51000000I-4120000J0D01*
G01*
X118514968Y-51000000D02*
G75*
G02*
X126754968Y-51000000I4120000J0D01*
G01*
%TO.C,C1*%
X80897317Y-48435000D02*
X81697317Y-48435000D01*
X81297317Y-48835000D02*
X81297317Y-48035000D01*
X77287619Y-54830000D02*
X77287619Y-46670000D01*
X77247619Y-54830000D02*
X77247619Y-46670000D01*
X77207619Y-54830000D02*
X77207619Y-46670000D01*
X77167619Y-54829000D02*
X77167619Y-46671000D01*
X77127619Y-54827000D02*
X77127619Y-46673000D01*
X77087619Y-54826000D02*
X77087619Y-46674000D01*
X77047619Y-54824000D02*
X77047619Y-46676000D01*
X77007619Y-54821000D02*
X77007619Y-46679000D01*
X76967619Y-54818000D02*
X76967619Y-46682000D01*
X76927619Y-54815000D02*
X76927619Y-46685000D01*
X76887619Y-54811000D02*
X76887619Y-46689000D01*
X76847619Y-54807000D02*
X76847619Y-46693000D01*
X76807619Y-54802000D02*
X76807619Y-46698000D01*
X76767619Y-54798000D02*
X76767619Y-46702000D01*
X76727619Y-54792000D02*
X76727619Y-46708000D01*
X76687619Y-54787000D02*
X76687619Y-46713000D01*
X76647619Y-54780000D02*
X76647619Y-46720000D01*
X76607619Y-54774000D02*
X76607619Y-46726000D01*
X76566619Y-49710000D02*
X76566619Y-46733000D01*
X76566619Y-54767000D02*
X76566619Y-51790000D01*
X76526619Y-49710000D02*
X76526619Y-46740000D01*
X76526619Y-54760000D02*
X76526619Y-51790000D01*
X76486619Y-49710000D02*
X76486619Y-46748000D01*
X76486619Y-54752000D02*
X76486619Y-51790000D01*
X76446619Y-49710000D02*
X76446619Y-46756000D01*
X76446619Y-54744000D02*
X76446619Y-51790000D01*
X76406619Y-49710000D02*
X76406619Y-46765000D01*
X76406619Y-54735000D02*
X76406619Y-51790000D01*
X76366619Y-49710000D02*
X76366619Y-46774000D01*
X76366619Y-54726000D02*
X76366619Y-51790000D01*
X76326619Y-49710000D02*
X76326619Y-46783000D01*
X76326619Y-54717000D02*
X76326619Y-51790000D01*
X76286619Y-49710000D02*
X76286619Y-46793000D01*
X76286619Y-54707000D02*
X76286619Y-51790000D01*
X76246619Y-49710000D02*
X76246619Y-46803000D01*
X76246619Y-54697000D02*
X76246619Y-51790000D01*
X76206619Y-49710000D02*
X76206619Y-46814000D01*
X76206619Y-54686000D02*
X76206619Y-51790000D01*
X76166619Y-49710000D02*
X76166619Y-46825000D01*
X76166619Y-54675000D02*
X76166619Y-51790000D01*
X76126619Y-49710000D02*
X76126619Y-46836000D01*
X76126619Y-54664000D02*
X76126619Y-51790000D01*
X76086619Y-49710000D02*
X76086619Y-46848000D01*
X76086619Y-54652000D02*
X76086619Y-51790000D01*
X76046619Y-49710000D02*
X76046619Y-46861000D01*
X76046619Y-54639000D02*
X76046619Y-51790000D01*
X76006619Y-49710000D02*
X76006619Y-46873000D01*
X76006619Y-54627000D02*
X76006619Y-51790000D01*
X75966619Y-49710000D02*
X75966619Y-46887000D01*
X75966619Y-54613000D02*
X75966619Y-51790000D01*
X75926619Y-49710000D02*
X75926619Y-46900000D01*
X75926619Y-54600000D02*
X75926619Y-51790000D01*
X75886619Y-49710000D02*
X75886619Y-46915000D01*
X75886619Y-54585000D02*
X75886619Y-51790000D01*
X75846619Y-49710000D02*
X75846619Y-46929000D01*
X75846619Y-54571000D02*
X75846619Y-51790000D01*
X75806619Y-49710000D02*
X75806619Y-46945000D01*
X75806619Y-54555000D02*
X75806619Y-51790000D01*
X75766619Y-49710000D02*
X75766619Y-46960000D01*
X75766619Y-54540000D02*
X75766619Y-51790000D01*
X75726619Y-49710000D02*
X75726619Y-46976000D01*
X75726619Y-54524000D02*
X75726619Y-51790000D01*
X75686619Y-49710000D02*
X75686619Y-46993000D01*
X75686619Y-54507000D02*
X75686619Y-51790000D01*
X75646619Y-49710000D02*
X75646619Y-47010000D01*
X75646619Y-54490000D02*
X75646619Y-51790000D01*
X75606619Y-49710000D02*
X75606619Y-47028000D01*
X75606619Y-54472000D02*
X75606619Y-51790000D01*
X75566619Y-49710000D02*
X75566619Y-47046000D01*
X75566619Y-54454000D02*
X75566619Y-51790000D01*
X75526619Y-49710000D02*
X75526619Y-47064000D01*
X75526619Y-54436000D02*
X75526619Y-51790000D01*
X75486619Y-49710000D02*
X75486619Y-47084000D01*
X75486619Y-54416000D02*
X75486619Y-51790000D01*
X75446619Y-49710000D02*
X75446619Y-47103000D01*
X75446619Y-54397000D02*
X75446619Y-51790000D01*
X75406619Y-49710000D02*
X75406619Y-47123000D01*
X75406619Y-54377000D02*
X75406619Y-51790000D01*
X75366619Y-49710000D02*
X75366619Y-47144000D01*
X75366619Y-54356000D02*
X75366619Y-51790000D01*
X75326619Y-49710000D02*
X75326619Y-47166000D01*
X75326619Y-54334000D02*
X75326619Y-51790000D01*
X75286619Y-49710000D02*
X75286619Y-47188000D01*
X75286619Y-54312000D02*
X75286619Y-51790000D01*
X75246619Y-49710000D02*
X75246619Y-47210000D01*
X75246619Y-54290000D02*
X75246619Y-51790000D01*
X75206619Y-49710000D02*
X75206619Y-47233000D01*
X75206619Y-54267000D02*
X75206619Y-51790000D01*
X75166619Y-49710000D02*
X75166619Y-47257000D01*
X75166619Y-54243000D02*
X75166619Y-51790000D01*
X75126619Y-49710000D02*
X75126619Y-47281000D01*
X75126619Y-54219000D02*
X75126619Y-51790000D01*
X75086619Y-49710000D02*
X75086619Y-47306000D01*
X75086619Y-54194000D02*
X75086619Y-51790000D01*
X75046619Y-49710000D02*
X75046619Y-47332000D01*
X75046619Y-54168000D02*
X75046619Y-51790000D01*
X75006619Y-49710000D02*
X75006619Y-47358000D01*
X75006619Y-54142000D02*
X75006619Y-51790000D01*
X74966619Y-49710000D02*
X74966619Y-47385000D01*
X74966619Y-54115000D02*
X74966619Y-51790000D01*
X74926619Y-49710000D02*
X74926619Y-47412000D01*
X74926619Y-54088000D02*
X74926619Y-51790000D01*
X74886619Y-49710000D02*
X74886619Y-47441000D01*
X74886619Y-54059000D02*
X74886619Y-51790000D01*
X74846619Y-49710000D02*
X74846619Y-47470000D01*
X74846619Y-54030000D02*
X74846619Y-51790000D01*
X74806619Y-49710000D02*
X74806619Y-47500000D01*
X74806619Y-54000000D02*
X74806619Y-51790000D01*
X74766619Y-49710000D02*
X74766619Y-47530000D01*
X74766619Y-53970000D02*
X74766619Y-51790000D01*
X74726619Y-49710000D02*
X74726619Y-47561000D01*
X74726619Y-53939000D02*
X74726619Y-51790000D01*
X74686619Y-49710000D02*
X74686619Y-47594000D01*
X74686619Y-53906000D02*
X74686619Y-51790000D01*
X74646619Y-49710000D02*
X74646619Y-47626000D01*
X74646619Y-53874000D02*
X74646619Y-51790000D01*
X74606619Y-49710000D02*
X74606619Y-47660000D01*
X74606619Y-53840000D02*
X74606619Y-51790000D01*
X74566619Y-49710000D02*
X74566619Y-47695000D01*
X74566619Y-53805000D02*
X74566619Y-51790000D01*
X74526619Y-49710000D02*
X74526619Y-47731000D01*
X74526619Y-53769000D02*
X74526619Y-51790000D01*
X74486619Y-53733000D02*
X74486619Y-47767000D01*
X74446619Y-53695000D02*
X74446619Y-47805000D01*
X74406619Y-53657000D02*
X74406619Y-47843000D01*
X74366619Y-53617000D02*
X74366619Y-47883000D01*
X74326619Y-53576000D02*
X74326619Y-47924000D01*
X74286619Y-53534000D02*
X74286619Y-47966000D01*
X74246619Y-53491000D02*
X74246619Y-48009000D01*
X74206619Y-53447000D02*
X74206619Y-48053000D01*
X74166619Y-53401000D02*
X74166619Y-48099000D01*
X74126619Y-53354000D02*
X74126619Y-48146000D01*
X74086619Y-53306000D02*
X74086619Y-48194000D01*
X74046619Y-53255000D02*
X74046619Y-48245000D01*
X74006619Y-53204000D02*
X74006619Y-48296000D01*
X73966619Y-53150000D02*
X73966619Y-48350000D01*
X73926619Y-53095000D02*
X73926619Y-48405000D01*
X73886619Y-53037000D02*
X73886619Y-48463000D01*
X73846619Y-52978000D02*
X73846619Y-48522000D01*
X73806619Y-52916000D02*
X73806619Y-48584000D01*
X73766619Y-52852000D02*
X73766619Y-48648000D01*
X73726619Y-52784000D02*
X73726619Y-48716000D01*
X73686619Y-52714000D02*
X73686619Y-48786000D01*
X73646619Y-52640000D02*
X73646619Y-48860000D01*
X73606619Y-52563000D02*
X73606619Y-48937000D01*
X73566619Y-52481000D02*
X73566619Y-49019000D01*
X73526619Y-52395000D02*
X73526619Y-49105000D01*
X73486619Y-52302000D02*
X73486619Y-49198000D01*
X73446619Y-52203000D02*
X73446619Y-49297000D01*
X73406619Y-52096000D02*
X73406619Y-49404000D01*
X73366619Y-51979000D02*
X73366619Y-49521000D01*
X73326619Y-51848000D02*
X73326619Y-49652000D01*
X73286619Y-51698000D02*
X73286619Y-49802000D01*
X73246619Y-51518000D02*
X73246619Y-49982000D01*
X73206619Y-51283000D02*
X73206619Y-50217000D01*
X81407619Y-50750000D02*
G75*
G02*
X73167619Y-50750000I-4120000J0D01*
G01*
X73167619Y-50750000D02*
G75*
G02*
X81407619Y-50750000I4120000J0D01*
G01*
%TD*%
M02*
