%TF.GenerationSoftware,KiCad,Pcbnew,8.0.2*%
%TF.CreationDate,2026-02-07T14:26:07+01:00*%
%TF.ProjectId,konstantynopolitanczykowianeczka_zamieszkujaca_konstantynopol,6b6f6e73-7461-46e7-9479-6e6f706f6c69,1*%
%TF.SameCoordinates,Original*%
%TF.FileFunction,Copper,L1,Top*%
%TF.FilePolarity,Positive*%
%FSLAX46Y46*%
G04 Gerber Fmt 4.6, Leading zero omitted, Abs format (unit mm)*
G04 Created by KiCad (PCBNEW 8.0.2) date 2026-02-07 14:26:07*
%MOMM*%
%LPD*%
G01*
G04 APERTURE LIST*
G04 Aperture macros list*
%AMRoundRect*
0 Rectangle with rounded corners*
0 $1 Rounding radius*
0 $2 $3 $4 $5 $6 $7 $8 $9 X,Y pos of 4 corners*
0 Add a 4 corners polygon primitive as box body*
4,1,4,$2,$3,$4,$5,$6,$7,$8,$9,$2,$3,0*
0 Add four circle primitives for the rounded corners*
1,1,$1+$1,$2,$3*
1,1,$1+$1,$4,$5*
1,1,$1+$1,$6,$7*
1,1,$1+$1,$8,$9*
0 Add four rect primitives between the rounded corners*
20,1,$1+$1,$2,$3,$4,$5,0*
20,1,$1+$1,$4,$5,$6,$7,0*
20,1,$1+$1,$6,$7,$8,$9,0*
20,1,$1+$1,$8,$9,$2,$3,0*%
G04 Aperture macros list end*
%TA.AperFunction,ComponentPad*%
%ADD10R,2.200000X2.200000*%
%TD*%
%TA.AperFunction,ComponentPad*%
%ADD11O,2.200000X2.200000*%
%TD*%
%TA.AperFunction,SMDPad,CuDef*%
%ADD12RoundRect,0.162500X-0.617500X-0.162500X0.617500X-0.162500X0.617500X0.162500X-0.617500X0.162500X0*%
%TD*%
%TA.AperFunction,ComponentPad*%
%ADD13R,1.905000X2.000000*%
%TD*%
%TA.AperFunction,ComponentPad*%
%ADD14O,1.905000X2.000000*%
%TD*%
%TA.AperFunction,ComponentPad*%
%ADD15R,2.400000X1.600000*%
%TD*%
%TA.AperFunction,ComponentPad*%
%ADD16O,2.400000X1.600000*%
%TD*%
%TA.AperFunction,ComponentPad*%
%ADD17C,1.400000*%
%TD*%
%TA.AperFunction,ComponentPad*%
%ADD18O,1.400000X1.400000*%
%TD*%
%TA.AperFunction,ComponentPad*%
%ADD19R,1.050000X1.500000*%
%TD*%
%TA.AperFunction,ComponentPad*%
%ADD20O,1.050000X1.500000*%
%TD*%
%TA.AperFunction,ComponentPad*%
%ADD21R,1.000000X1.000000*%
%TD*%
%TA.AperFunction,ComponentPad*%
%ADD22O,1.000000X1.000000*%
%TD*%
%TA.AperFunction,ComponentPad*%
%ADD23R,1.800000X1.800000*%
%TD*%
%TA.AperFunction,ComponentPad*%
%ADD24C,1.800000*%
%TD*%
%TA.AperFunction,ComponentPad*%
%ADD25R,1.600000X1.600000*%
%TD*%
%TA.AperFunction,ComponentPad*%
%ADD26C,1.600000*%
%TD*%
%TA.AperFunction,Conductor*%
%ADD27C,1.000000*%
%TD*%
%TA.AperFunction,Conductor*%
%ADD28C,0.500000*%
%TD*%
G04 APERTURE END LIST*
D10*
%TO.P,D9,1,K*%
%TO.N,Net-(D9-K)*%
X119884968Y-76330000D03*
D11*
%TO.P,D9,2,A*%
%TO.N,Net-(D9-A)*%
X119884968Y-66170000D03*
%TD*%
D12*
%TO.P,U2,1,NC*%
%TO.N,unconnected-(U2-NC-Pad1)*%
X103934968Y-55100000D03*
%TO.P,U2,2*%
%TO.N,Net-(Q1-C)*%
X103934968Y-56050000D03*
%TO.P,U2,3,GND*%
%TO.N,Net-(J1-Pin_2)*%
X103934968Y-57000000D03*
%TO.P,U2,4*%
%TO.N,Net-(U1-CLK)*%
X106634968Y-57000000D03*
%TO.P,U2,5,VCC*%
%TO.N,Net-(U1-VDD)*%
X106634968Y-55100000D03*
%TD*%
D13*
%TO.P,U3,1,VI*%
%TO.N,Net-(D9-K)*%
X114344968Y-98730000D03*
D14*
%TO.P,U3,2,GND*%
%TO.N,Net-(J1-Pin_2)*%
X116884968Y-98730000D03*
%TO.P,U3,3,VO*%
%TO.N,Net-(U1-VDD)*%
X119424968Y-98730000D03*
%TD*%
D15*
%TO.P,U1,1,Q5*%
%TO.N,unconnected-(U1-Q5-Pad1)*%
X101514968Y-62170000D03*
D16*
%TO.P,U1,2,Q1*%
%TO.N,Net-(D5-A)*%
X101514968Y-64710000D03*
%TO.P,U1,3,Q0*%
%TO.N,Net-(D1-A)*%
X101514968Y-67250000D03*
%TO.P,U1,4,Q2*%
%TO.N,Net-(D3-A)*%
X101514968Y-69790000D03*
%TO.P,U1,5,Q6*%
%TO.N,unconnected-(U1-Q6-Pad5)*%
X101514968Y-72330000D03*
%TO.P,U1,6,Q7*%
%TO.N,unconnected-(U1-Q7-Pad6)*%
X101514968Y-74870000D03*
%TO.P,U1,7,Q3*%
%TO.N,Net-(D7-A)*%
X101514968Y-77410000D03*
%TO.P,U1,8,VSS*%
%TO.N,Net-(J1-Pin_2)*%
X101514968Y-79950000D03*
%TO.P,U1,9,Q8*%
%TO.N,unconnected-(U1-Q8-Pad9)*%
X109134968Y-79950000D03*
%TO.P,U1,10,Q4*%
%TO.N,Net-(U1-Q4)*%
X109134968Y-77410000D03*
%TO.P,U1,11,Q9*%
%TO.N,unconnected-(U1-Q9-Pad11)*%
X109134968Y-74870000D03*
%TO.P,U1,12,Cout*%
%TO.N,unconnected-(U1-Cout-Pad12)*%
X109134968Y-72330000D03*
%TO.P,U1,13,CKEN*%
%TO.N,Net-(J1-Pin_2)*%
X109134968Y-69790000D03*
%TO.P,U1,14,CLK*%
%TO.N,Net-(U1-CLK)*%
X109134968Y-67250000D03*
%TO.P,U1,15,Reset*%
%TO.N,Net-(U1-Q4)*%
X109134968Y-64710000D03*
%TO.P,U1,16,VDD*%
%TO.N,Net-(U1-VDD)*%
X109134968Y-62170000D03*
%TD*%
D17*
%TO.P,R10,1*%
%TO.N,Net-(D8-K)*%
X88194968Y-57000000D03*
D18*
%TO.P,R10,2*%
%TO.N,Net-(J1-Pin_2)*%
X80574968Y-57000000D03*
%TD*%
D17*
%TO.P,R9,1*%
%TO.N,Net-(D7-K)*%
X95324968Y-88250000D03*
D18*
%TO.P,R9,2*%
%TO.N,Net-(J1-Pin_2)*%
X102944968Y-88250000D03*
%TD*%
D17*
%TO.P,R8,1*%
%TO.N,Net-(D4-K)*%
X80634968Y-82690000D03*
D18*
%TO.P,R8,2*%
%TO.N,Net-(J1-Pin_2)*%
X80634968Y-90310000D03*
%TD*%
D17*
%TO.P,R7,1*%
%TO.N,Net-(D3-K)*%
X80634968Y-72690000D03*
D18*
%TO.P,R7,2*%
%TO.N,Net-(J1-Pin_2)*%
X80634968Y-80310000D03*
%TD*%
D17*
%TO.P,R6,1*%
%TO.N,Net-(D6-K)*%
X85264968Y-88250000D03*
D18*
%TO.P,R6,2*%
%TO.N,Net-(J1-Pin_2)*%
X92884968Y-88250000D03*
%TD*%
D17*
%TO.P,R5,1*%
%TO.N,Net-(D5-K)*%
X101324968Y-83750000D03*
D18*
%TO.P,R5,2*%
%TO.N,Net-(J1-Pin_2)*%
X108944968Y-83750000D03*
%TD*%
D17*
%TO.P,R4,1*%
%TO.N,Net-(D2-K)*%
X80634968Y-70310000D03*
D18*
%TO.P,R4,2*%
%TO.N,Net-(J1-Pin_2)*%
X80634968Y-62690000D03*
%TD*%
D17*
%TO.P,R3,1*%
%TO.N,Net-(D1-K)*%
X91324968Y-57000000D03*
D18*
%TO.P,R3,2*%
%TO.N,Net-(J1-Pin_2)*%
X98944968Y-57000000D03*
%TD*%
D17*
%TO.P,R2,1*%
%TO.N,Net-(Q1-C)*%
X101444968Y-52500000D03*
D18*
%TO.P,R2,2*%
%TO.N,Net-(J1-Pin_2)*%
X93824968Y-52500000D03*
%TD*%
D17*
%TO.P,R1,1*%
%TO.N,Net-(U1-VDD)*%
X114134968Y-66310000D03*
D18*
%TO.P,R1,2*%
%TO.N,Net-(Q1-E)*%
X114134968Y-58690000D03*
%TD*%
D19*
%TO.P,Q1,1,C*%
%TO.N,Net-(Q1-C)*%
X112684968Y-54200000D03*
D20*
%TO.P,Q1,2,B*%
%TO.N,unconnected-(Q1-B-Pad2)*%
X113954968Y-54200000D03*
%TO.P,Q1,3,E*%
%TO.N,Net-(Q1-E)*%
X115224968Y-54200000D03*
%TD*%
D21*
%TO.P,J1,1,Pin_1*%
%TO.N,Net-(D9-A)*%
X125209968Y-71475000D03*
D22*
%TO.P,J1,2,Pin_2*%
%TO.N,Net-(J1-Pin_2)*%
X125209968Y-72745000D03*
%TD*%
D23*
%TO.P,D8,1,K*%
%TO.N,Net-(D8-K)*%
X84594968Y-63750000D03*
D24*
%TO.P,D8,2,A*%
%TO.N,Net-(D7-A)*%
X87134968Y-63750000D03*
%TD*%
D23*
%TO.P,D7,1,K*%
%TO.N,Net-(D7-K)*%
X91109968Y-83250000D03*
D24*
%TO.P,D7,2,A*%
%TO.N,Net-(D7-A)*%
X93649968Y-83250000D03*
%TD*%
D23*
%TO.P,D6,1,K*%
%TO.N,Net-(D6-K)*%
X84594968Y-83250000D03*
D24*
%TO.P,D6,2,A*%
%TO.N,Net-(D5-A)*%
X87134968Y-83250000D03*
%TD*%
D23*
%TO.P,D5,1,K*%
%TO.N,Net-(D5-K)*%
X91109968Y-76750000D03*
D24*
%TO.P,D5,2,A*%
%TO.N,Net-(D5-A)*%
X93649968Y-76750000D03*
%TD*%
D23*
%TO.P,D4,1,K*%
%TO.N,Net-(D4-K)*%
X84609968Y-76750000D03*
D24*
%TO.P,D4,2,A*%
%TO.N,Net-(D3-A)*%
X87149968Y-76750000D03*
%TD*%
D23*
%TO.P,D3,1,K*%
%TO.N,Net-(D3-K)*%
X91134968Y-70250000D03*
D24*
%TO.P,D3,2,A*%
%TO.N,Net-(D3-A)*%
X93674968Y-70250000D03*
%TD*%
D23*
%TO.P,D2,1,K*%
%TO.N,Net-(D2-K)*%
X84609968Y-70250000D03*
D24*
%TO.P,D2,2,A*%
%TO.N,Net-(D1-A)*%
X87149968Y-70250000D03*
%TD*%
D23*
%TO.P,D1,1,K*%
%TO.N,Net-(D1-K)*%
X91094968Y-63750000D03*
D24*
%TO.P,D1,2,A*%
%TO.N,Net-(D1-A)*%
X93634968Y-63750000D03*
%TD*%
D25*
%TO.P,C3,1*%
%TO.N,Net-(D9-K)*%
X102037619Y-95750000D03*
D26*
%TO.P,C3,2*%
%TO.N,Net-(J1-Pin_2)*%
X98537619Y-95750000D03*
%TD*%
D25*
%TO.P,C2,1*%
%TO.N,Net-(U1-VDD)*%
X124384968Y-51000000D03*
D26*
%TO.P,C2,2*%
%TO.N,Net-(J1-Pin_2)*%
X120884968Y-51000000D03*
%TD*%
D25*
%TO.P,C1,1*%
%TO.N,Net-(Q1-E)*%
X79037619Y-50750000D03*
D26*
%TO.P,C1,2*%
%TO.N,Net-(J1-Pin_2)*%
X75537619Y-50750000D03*
%TD*%
D27*
%TO.N,Net-(D9-K)*%
X105017619Y-98730000D02*
X102037619Y-95750000D01*
X114344968Y-98730000D02*
X105017619Y-98730000D01*
X114344968Y-91290000D02*
X114344968Y-98730000D01*
X119884968Y-85750000D02*
X114344968Y-91290000D01*
X119884968Y-76330000D02*
X119884968Y-85750000D01*
%TO.N,Net-(J1-Pin_2)*%
X125209968Y-72745000D02*
X116299968Y-72745000D01*
X116299968Y-72745000D02*
X113344968Y-69790000D01*
%TO.N,Net-(D9-A)*%
X119904968Y-66170000D02*
X125209968Y-71475000D01*
X119884968Y-66170000D02*
X119904968Y-66170000D01*
%TO.N,Net-(J1-Pin_2)*%
X98537619Y-92652651D02*
X95884968Y-90000000D01*
X98537619Y-95750000D02*
X98537619Y-92652651D01*
X113344968Y-69790000D02*
X109134968Y-69790000D01*
X117634968Y-54250000D02*
X117634968Y-65500000D01*
X117634968Y-65500000D02*
X113344968Y-69790000D01*
X120884968Y-51000000D02*
X117634968Y-54250000D01*
X75537619Y-51962651D02*
X80574968Y-57000000D01*
X75537619Y-50750000D02*
X75537619Y-51962651D01*
%TO.N,Net-(Q1-E)*%
X115224968Y-53512588D02*
X115224968Y-54200000D01*
X112462380Y-50750000D02*
X115224968Y-53512588D01*
X79037619Y-50750000D02*
X112462380Y-50750000D01*
%TO.N,Net-(U1-VDD)*%
X109214968Y-62250000D02*
X109134968Y-62170000D01*
X111634968Y-62250000D02*
X109214968Y-62250000D01*
X114134968Y-64750000D02*
X111634968Y-62250000D01*
X114134968Y-66310000D02*
X114134968Y-64750000D01*
%TO.N,Net-(Q1-E)*%
X115224968Y-57600000D02*
X114134968Y-58690000D01*
X115224968Y-54200000D02*
X115224968Y-57600000D01*
%TO.N,Net-(Q1-C)*%
X110984968Y-52500000D02*
X101444968Y-52500000D01*
X112684968Y-54200000D02*
X110984968Y-52500000D01*
%TO.N,Net-(J1-Pin_2)*%
X93824968Y-53560000D02*
X92384968Y-55000000D01*
X93824968Y-52500000D02*
X93824968Y-53560000D01*
D28*
%TO.N,Net-(U1-VDD)*%
X109134968Y-57600000D02*
X109134968Y-62170000D01*
X106634968Y-55100000D02*
X109134968Y-57600000D01*
%TO.N,Net-(U1-CLK)*%
X108884968Y-67000000D02*
X109134968Y-67250000D01*
X106634968Y-66750000D02*
X106884968Y-67000000D01*
X106884968Y-67000000D02*
X108884968Y-67000000D01*
X106634968Y-57000000D02*
X106634968Y-66750000D01*
%TO.N,Net-(Q1-C)*%
X102684968Y-56050000D02*
X103934968Y-56050000D01*
X101444968Y-54810000D02*
X102684968Y-56050000D01*
X101444968Y-52500000D02*
X101444968Y-54810000D01*
%TO.N,Net-(J1-Pin_2)*%
X103934968Y-57000000D02*
X98944968Y-57000000D01*
D27*
X105314968Y-83750000D02*
X101514968Y-79950000D01*
X108944968Y-83750000D02*
X105314968Y-83750000D01*
X107384968Y-83750000D02*
X108944968Y-83750000D01*
X107384968Y-83810000D02*
X107384968Y-83750000D01*
X102944968Y-88250000D02*
X107384968Y-83810000D01*
X97634968Y-88250000D02*
X102944968Y-88250000D01*
X94634968Y-90000000D02*
X95884968Y-90000000D01*
X95884968Y-90000000D02*
X97634968Y-88250000D01*
X92884968Y-88250000D02*
X94634968Y-90000000D01*
X89134968Y-88250000D02*
X92884968Y-88250000D01*
X87074968Y-90310000D02*
X89134968Y-88250000D01*
X80634968Y-90310000D02*
X87074968Y-90310000D01*
X78884968Y-83750000D02*
X80634968Y-85500000D01*
X80634968Y-85500000D02*
X80634968Y-90310000D01*
X78884968Y-82060000D02*
X78884968Y-83750000D01*
X80634968Y-80310000D02*
X78884968Y-82060000D01*
X78634968Y-69500000D02*
X78634968Y-73000000D01*
X80634968Y-75000000D02*
X80634968Y-80310000D01*
X80634968Y-67500000D02*
X78634968Y-69500000D01*
X78634968Y-73000000D02*
X80634968Y-75000000D01*
X80634968Y-62690000D02*
X80634968Y-67500000D01*
X94384968Y-57000000D02*
X98944968Y-57000000D01*
X92384968Y-55000000D02*
X94384968Y-57000000D01*
X84884968Y-57000000D02*
X86884968Y-55000000D01*
X86884968Y-55000000D02*
X92384968Y-55000000D01*
X80574968Y-57000000D02*
X84884968Y-57000000D01*
X80574968Y-62630000D02*
X80634968Y-62690000D01*
X80574968Y-57000000D02*
X80574968Y-62630000D01*
%TO.N,Net-(D8-K)*%
X84884968Y-63460000D02*
X84594968Y-63750000D01*
X84884968Y-60310000D02*
X84884968Y-63460000D01*
X88194968Y-57000000D02*
X84884968Y-60310000D01*
%TO.N,Net-(D7-K)*%
X91109968Y-83250000D02*
X91109968Y-84035000D01*
X91109968Y-84035000D02*
X95324968Y-88250000D01*
%TO.N,Net-(D4-K)*%
X84609968Y-78715000D02*
X84609968Y-76750000D01*
X80634968Y-82690000D02*
X84609968Y-78715000D01*
%TO.N,Net-(D3-K)*%
X80634968Y-72690000D02*
X88694968Y-72690000D01*
X88694968Y-72690000D02*
X91134968Y-70250000D01*
%TO.N,Net-(D6-K)*%
X84594968Y-87580000D02*
X85264968Y-88250000D01*
X84594968Y-83250000D02*
X84594968Y-87580000D01*
%TO.N,Net-(D2-K)*%
X84549968Y-70310000D02*
X84609968Y-70250000D01*
X80634968Y-70310000D02*
X84549968Y-70310000D01*
%TO.N,Net-(D1-K)*%
X91094968Y-57230000D02*
X91324968Y-57000000D01*
X91094968Y-63750000D02*
X91094968Y-57230000D01*
%TO.N,Net-(D7-A)*%
X95674968Y-83250000D02*
X101514968Y-77410000D01*
X93649968Y-83250000D02*
X95674968Y-83250000D01*
%TO.N,Net-(D5-A)*%
X87809968Y-83250000D02*
X87134968Y-83250000D01*
X93649968Y-77410000D02*
X87809968Y-83250000D01*
X93649968Y-76750000D02*
X93649968Y-77410000D01*
%TO.N,Net-(D3-A)*%
X87834968Y-76750000D02*
X87149968Y-76750000D01*
X93674968Y-70910000D02*
X87834968Y-76750000D01*
X93674968Y-70250000D02*
X93674968Y-70910000D01*
X101054968Y-70250000D02*
X101514968Y-69790000D01*
X93674968Y-70250000D02*
X101054968Y-70250000D01*
%TO.N,Net-(D1-A)*%
X87794968Y-70250000D02*
X87149968Y-70250000D01*
X93634968Y-64410000D02*
X87794968Y-70250000D01*
X93634968Y-63750000D02*
X93634968Y-64410000D01*
X97134968Y-67250000D02*
X101514968Y-67250000D01*
X93634968Y-63750000D02*
X97134968Y-67250000D01*
%TO.N,Net-(J1-Pin_2)*%
X105134968Y-73790000D02*
X109134968Y-69790000D01*
X105134968Y-76330000D02*
X105134968Y-73790000D01*
X101514968Y-79950000D02*
X105134968Y-76330000D01*
%TD*%
M02*
