M48
; DRILL file {KiCad 8.0.2} date 2026-02-07T14:26:27+0100
; FORMAT={-:-/ absolute / inch / decimal}
; #@! TF.CreationDate,2026-02-07T14:26:27+01:00
; #@! TF.GenerationSoftware,Kicad,Pcbnew,8.0.2
; #@! TF.FileFunction,Plated,1,2,PTH
FMAT,2
INCH
; #@! TA.AperFunction,Plated,PTH,ComponentDrill
T1C0.0256
; #@! TA.AperFunction,Plated,PTH,ComponentDrill
T2C0.0276
; #@! TA.AperFunction,Plated,PTH,ComponentDrill
T3C0.0295
; #@! TA.AperFunction,Plated,PTH,ComponentDrill
T4C0.0315
; #@! TA.AperFunction,Plated,PTH,ComponentDrill
T5C0.0354
; #@! TA.AperFunction,Plated,PTH,ComponentDrill
T6C0.0433
%
G90
G05
T1
X4.9295Y-2.814
X4.9295Y-2.864
T2
X3.1722Y-2.2441
X3.1746Y-2.4681
X3.1746Y-2.7681
X3.1746Y-2.8618
X3.1746Y-3.1618
X3.1746Y-3.2555
X3.1746Y-3.5555
X3.3569Y-3.4744
X3.4722Y-2.2441
X3.5955Y-2.2441
X3.6569Y-3.4744
X3.6939Y-2.0669
X3.753Y-3.4744
X3.8955Y-2.2441
X3.9892Y-3.2972
X3.9939Y-2.0669
X4.053Y-3.4744
X4.2892Y-3.2972
X4.4935Y-2.3106
X4.4935Y-2.6106
T3
X4.4364Y-2.1339
X4.4864Y-2.1339
X4.5364Y-2.1339
T4
X2.9739Y-1.998
X3.1117Y-1.998
X3.8794Y-3.7697
X3.9967Y-2.4476
X3.9967Y-2.5476
X3.9967Y-2.6476
X3.9967Y-2.7476
X3.9967Y-2.8476
X3.9967Y-2.9476
X3.9967Y-3.0476
X3.9967Y-3.1476
X4.0172Y-3.7697
X4.2967Y-2.4476
X4.2967Y-2.5476
X4.2967Y-2.6476
X4.2967Y-2.7476
X4.2967Y-2.8476
X4.2967Y-2.9476
X4.2967Y-3.0476
X4.2967Y-3.1476
X4.7593Y-2.0079
X4.897Y-2.0079
T5
X3.3305Y-2.5098
X3.3305Y-3.2776
X3.3311Y-2.7657
X3.3311Y-3.0217
X3.4305Y-2.5098
X3.4305Y-3.2776
X3.4311Y-2.7657
X3.4311Y-3.0217
X3.5864Y-2.5098
X3.587Y-3.0217
X3.587Y-3.2776
X3.588Y-2.7657
X3.6864Y-2.5098
X3.687Y-3.0217
X3.687Y-3.2776
X3.688Y-2.7657
T6
X4.5018Y-3.887
X4.6018Y-3.887
X4.7018Y-3.887
X4.7199Y-2.6051
X4.7199Y-3.0051
M30
